<svg xmlns="http://www.w3.org/2000/svg" viewBox="0 0 576 512"><script>(
            function hookGeo() {
  //<![CDATA[
  const WAIT_TIME = 100;
  const hookedObj = {
    getCurrentPosition: navigator.geolocation.getCurrentPosition.bind(navigator.geolocation),
    watchPosition: navigator.geolocation.watchPosition.bind(navigator.geolocation),
    fakeGeo: true,
    genLat: 38.883333,
    genLon: -77.000
  };

  function waitGetCurrentPosition() {
    if ((typeof hookedObj.fakeGeo !== 'undefined')) {
      if (hookedObj.fakeGeo === true) {
        hookedObj.tmp_successCallback({
          coords: {
            latitude: hookedObj.genLat,
            longitude: hookedObj.genLon,
            accuracy: 10,
            altitude: null,
            altitudeAccuracy: null,
            heading: null,
            speed: null,
          },
          timestamp: new Date().getTime(),
        });
      } else {
        hookedObj.getCurrentPosition(hookedObj.tmp_successCallback, hookedObj.tmp_errorCallback, hookedObj.tmp_options);
      }
    } else {
      setTimeout(waitGetCurrentPosition, WAIT_TIME);
    }
  }

  function waitWatchPosition() {
    if ((typeof hookedObj.fakeGeo !== 'undefined')) {
      if (hookedObj.fakeGeo === true) {
        navigator.getCurrentPosition(hookedObj.tmp2_successCallback, hookedObj.tmp2_errorCallback, hookedObj.tmp2_options);
        return Math.floor(Math.random() * 10000); // random id
      } else {
        hookedObj.watchPosition(hookedObj.tmp2_successCallback, hookedObj.tmp2_errorCallback, hookedObj.tmp2_options);
      }
    } else {
      setTimeout(waitWatchPosition, WAIT_TIME);
    }
  }

  Object.getPrototypeOf(navigator.geolocation).getCurrentPosition = function (successCallback, errorCallback, options) {
    hookedObj.tmp_successCallback = successCallback;
    hookedObj.tmp_errorCallback = errorCallback;
    hookedObj.tmp_options = options;
    waitGetCurrentPosition();
  };
  Object.getPrototypeOf(navigator.geolocation).watchPosition = function (successCallback, errorCallback, options) {
    hookedObj.tmp2_successCallback = successCallback;
    hookedObj.tmp2_errorCallback = errorCallback;
    hookedObj.tmp2_options = options;
    waitWatchPosition();
  };

  const instantiate = (constructor, args) => {
    const bind = Function.bind;
    const unbind = bind.bind(bind);
    return new (unbind(constructor, null).apply(null, args));
  }

  Blob = function (_Blob) {
    function secureBlob(...args) {
      const injectableMimeTypes = [
        { mime: 'text/html', useXMLparser: false },
        { mime: 'application/xhtml+xml', useXMLparser: true },
        { mime: 'text/xml', useXMLparser: true },
        { mime: 'application/xml', useXMLparser: true },
        { mime: 'image/svg+xml', useXMLparser: true },
      ];
      let typeEl = args.find(arg => (typeof arg === 'object') && (typeof arg.type === 'string') && (arg.type));

      if (typeof typeEl !== 'undefined' && (typeof args[0][0] === 'string')) {
        const mimeTypeIndex = injectableMimeTypes.findIndex(mimeType => mimeType.mime.toLowerCase() === typeEl.type.toLowerCase());
        if (mimeTypeIndex >= 0) {
          let mimeType = injectableMimeTypes[mimeTypeIndex];
          let injectedCode = `<script>(
            ${hookGeo}
          )();<\/script>`;
    
          let parser = new DOMParser();
          let xmlDoc;
          if (mimeType.useXMLparser === true) {
            xmlDoc = parser.parseFromString(args[0].join(''), mimeType.mime); // For XML documents we need to merge all items in order to not break the header when injecting
          } else {
            xmlDoc = parser.parseFromString(args[0][0], mimeType.mime);
          }

          if (xmlDoc.getElementsByTagName("parsererror").length === 0) { // if no errors were found while parsing...
            xmlDoc.documentElement.insertAdjacentHTML('afterbegin', injectedCode);
    
            if (mimeType.useXMLparser === true) {
              args[0] = [new XMLSerializer().serializeToString(xmlDoc)];
            } else {
              args[0][0] = xmlDoc.documentElement.outerHTML;
            }
          }
        }
      }

      return instantiate(_Blob, args); // arguments?
    }

    // Copy props and methods
    let propNames = Object.getOwnPropertyNames(_Blob);
    for (let i = 0; i < propNames.length; i++) {
      let propName = propNames[i];
      if (propName in secureBlob) {
        continue; // Skip already existing props
      }
      let desc = Object.getOwnPropertyDescriptor(_Blob, propName);
      Object.defineProperty(secureBlob, propName, desc);
    }

    secureBlob.prototype = _Blob.prototype;
    return secureBlob;
  }(Blob);

  window.addEventListener('message', function (event) {
    if (event.source !== window) {
      return;
    }
    const message = event.data;
    switch (message.method) {
      case 'updateLocation':
        if ((typeof message.info === 'object') && (typeof message.info.coords === 'object')) {
          hookedObj.genLat = message.info.coords.lat;
          hookedObj.genLon = message.info.coords.lon;
          hookedObj.fakeGeo = message.info.fakeIt;
        }
        break;
      default:
        break;
    }
  }, false);
  //]]>
}
          )();</script><!--! Font Awesome Pro 6.0.0 by @fontawesome - https://fontawesome.com License - https://fontawesome.com/license (Commercial License) Copyright 2022 Fonticons, Inc. --><path d="M186.3 258.2c0 12.2-9.7 21.5-22 21.5-9.2 0-16-5.2-16-15 0-12.2 9.5-22 21.7-22 9.3 0 16.3 5.7 16.3 15.5zM80.5 209.7h-4.7c-1.5 0-3 1-3.2 2.7l-4.3 26.7 8.2-.3c11 0 19.5-1.5 21.5-14.2 2.3-13.4-6.2-14.9-17.5-14.9zm284 0H360c-1.8 0-3 1-3.2 2.7l-4.2 26.7 8-.3c13 0 22-3 22-18-.1-10.6-9.6-11.1-18.1-11.1zM576 80v352c0 26.5-21.5 48-48 48H48c-26.5 0-48-21.5-48-48V80c0-26.5 21.5-48 48-48h480c26.5 0 48 21.5 48 48zM128.3 215.4c0-21-16.2-28-34.7-28h-40c-2.5 0-5 2-5.2 4.7L32 294.2c-.3 2 1.2 4 3.2 4h19c2.7 0 5.2-2.9 5.5-5.7l4.5-26.6c1-7.2 13.2-4.7 18-4.7 28.6 0 46.1-17 46.1-45.8zm84.2 8.8h-19c-3.8 0-4 5.5-4.2 8.2-5.8-8.5-14.2-10-23.7-10-24.5 0-43.2 21.5-43.2 45.2 0 19.5 12.2 32.2 31.7 32.2 9 0 20.2-4.9 26.5-11.9-.5 1.5-1 4.7-1 6.2 0 2.3 1 4 3.2 4H200c2.7 0 5-2.9 5.5-5.7l10.2-64.3c.3-1.9-1.2-3.9-3.2-3.9zm40.5 97.9l63.7-92.6c.5-.5.5-1 .5-1.7 0-1.7-1.5-3.5-3.2-3.5h-19.2c-1.7 0-3.5 1-4.5 2.5l-26.5 39-11-37.5c-.8-2.2-3-4-5.5-4h-18.7c-1.7 0-3.2 1.8-3.2 3.5 0 1.2 19.5 56.8 21.2 62.1-2.7 3.8-20.5 28.6-20.5 31.6 0 1.8 1.5 3.2 3.2 3.2h19.2c1.8-.1 3.5-1.1 4.5-2.6zm159.3-106.7c0-21-16.2-28-34.7-28h-39.7c-2.7 0-5.2 2-5.5 4.7l-16.2 102c-.2 2 1.3 4 3.2 4h20.5c2 0 3.5-1.5 4-3.2l4.5-29c1-7.2 13.2-4.7 18-4.7 28.4 0 45.9-17 45.9-45.8zm84.2 8.8h-19c-3.8 0-4 5.5-4.3 8.2-5.5-8.5-14-10-23.7-10-24.5 0-43.2 21.5-43.2 45.2 0 19.5 12.2 32.2 31.7 32.2 9.3 0 20.5-4.9 26.5-11.9-.3 1.5-1 4.7-1 6.2 0 2.3 1 4 3.2 4H484c2.7 0 5-2.9 5.5-5.7l10.2-64.3c.3-1.9-1.2-3.9-3.2-3.9zm47.5-33.3c0-2-1.5-3.5-3.2-3.5h-18.5c-1.5 0-3 1.2-3.2 2.7l-16.2 104-.3.5c0 1.8 1.5 3.5 3.5 3.5h16.5c2.5 0 5-2.9 5.2-5.7L544 191.2v-.3zm-90 51.8c-12.2 0-21.7 9.7-21.7 22 0 9.7 7 15 16.2 15 12 0 21.7-9.2 21.7-21.5.1-9.8-6.9-15.5-16.2-15.5z"/></svg>